<?xml version="1.0" encoding="UTF-8" standalone="no"?>
<svg
   xmlns:dc="http://purl.org/dc/elements/1.1/"
   xmlns:cc="http://creativecommons.org/ns#"
   xmlns:rdf="http://www.w3.org/1999/02/22-rdf-syntax-ns#"
   xmlns:svg="http://www.w3.org/2000/svg"
   xmlns="http://www.w3.org/2000/svg"
   xmlns:sodipodi="http://sodipodi.sourceforge.net/DTD/sodipodi-0.dtd"
   xmlns:inkscape="http://www.inkscape.org/namespaces/inkscape"
   sodipodi:docname="Greencore.svg"
   xml:space="preserve"
   height="130.27112"
   width="899.91498"
   inkscape:version="1.0 (4035a4fb49, 2020-05-01)"
   version="1.1"
   id="svg2"><metadata
     id="metadata8"><rdf:RDF><cc:Work
         rdf:about=""><dc:format>image/svg+xml</dc:format><dc:type
           rdf:resource="http://purl.org/dc/dcmitype/StillImage" /><dc:title></dc:title></cc:Work></rdf:RDF></metadata><defs
     id="defs6"><clipPath
       id="clipPath16"
       clipPathUnits="userSpaceOnUse"><path
         inkscape:connector-curvature="0"
         id="path18"
         d="M 0,600 H 800 V 0 H 0 Z" /></clipPath><clipPath
       id="clipPath28"
       clipPathUnits="userSpaceOnUse"><path
         inkscape:connector-curvature="0"
         id="path30"
         d="m 48.626,570.822 c -4.243,0 -7.683,-3.439 -7.683,-7.682 v 0 -80.774 l 1.941,1.169 c 0,0 4.774,3.999 12.192,13.114 v 0 c 7.416,9.116 12.851,17.681 4.275,35.089 v 0 c 0,0 -0.836,1.12 -1.944,2.794 v 0 c -0.383,0.537 -0.943,0.876 -1.496,1.386 v 0 c -2.673,4.172 -5.747,8.781 -2.673,14.929 v 0 c 3.072,4.61 9.218,6.145 13.829,4.61 v 0 c 9.218,-6.147 4.609,-16.904 -1.765,-23.147 v 0 c 0.033,-0.778 0.131,-1.563 0.277,-2.346 v 0 c 1.021,-5.475 4.423,-10.758 5.221,-11.736 v 0 c 1.136,-1.395 4.814,-5.401 10.115,1.311 v 0 c 5.308,6.711 16.679,20.455 16.679,20.455 v 0 c 0,0 1.064,1.771 1.409,5.028 v 0 c 0.046,0.464 0.02,0.96 0.032,1.488 v 0 c 0.301,7.408 6.449,13.556 14.131,10.482 v 0 c 6.145,-3.074 7.682,-9.218 6.145,-15.365 v 0 c -1.534,-4.61 -6.145,-7.685 -12.54,-7.536 v 0 c -0.638,-0.306 -1.283,-0.635 -1.934,-0.998 v 0 c -3.258,-1.813 -6.679,-4.422 -10.068,-8.749 v 0 C 86.634,513.959 85.372,513.502 84.163,510.919 v 0 c -1.21,-2.58 -8.217,-12.01 7.246,-13.389 v 0 c 7.73,-0.689 13.809,1.881 18.039,4.752 v 0 c 0.704,0.48 1.354,0.966 1.923,1.461 v 0 c 0.256,5.614 8.54,9.623 13.152,8.086 v 0 c 7.682,-3.072 9.91,-10.423 7.081,-16.303 v 0 c -3.073,-6.146 -12.293,-9.22 -16.965,-3.196 v 0 c -0.56,0.062 -1.131,0.095 -1.693,0.136 v 0 c -36.691,0.32 -49.729,-18.751 -52.779,-24.597 v 0 h 76.048 c 4.244,0 7.683,3.439 7.683,7.682 v 0 87.589 c 0,4.243 -3.439,7.682 -7.683,7.682 v 0 z" /></clipPath><linearGradient
       id="linearGradient36"
       spreadMethod="pad"
       gradientTransform="matrix(71.63884,-112.92218,-112.92218,-71.63884,53.053223,577.46924)"
       gradientUnits="userSpaceOnUse"
       y2="0"
       x2="1"
       y1="0"
       x1="0"><stop
         id="stop38"
         offset="0"
         style="stop-opacity:1;stop-color:#9af732" /><stop
         id="stop40"
         offset="1"
         style="stop-opacity:1;stop-color:#005b00" /></linearGradient><clipPath
       id="clipPath48"
       clipPathUnits="userSpaceOnUse"><path
         inkscape:connector-curvature="0"
         id="path50"
         d="M 0,600 H 800 V 0 H 0 Z" /></clipPath><clipPath
       id="clipPath130"
       clipPathUnits="userSpaceOnUse"><path
         inkscape:connector-curvature="0"
         id="path132"
         d="M 76.158,600 C 66.423,594.249 61.823,587.175 60.167,584 v 0 h 76.048 c 4.244,0 7.683,3.439 7.683,7.682 v 0 8.318 z m -35.215,0 v -1.503 l 1.941,1.169 c 0,0 0.131,0.11 0.383,0.334 v 0 z" /></clipPath><linearGradient
       id="linearGradient138"
       spreadMethod="pad"
       gradientTransform="matrix(71.63884,-112.92218,-112.92218,-71.63884,53.053223,693.60059)"
       gradientUnits="userSpaceOnUse"
       y2="0"
       x2="1"
       y1="0"
       x1="0"><stop
         id="stop140"
         offset="0"
         style="stop-opacity:1;stop-color:#9af732" /><stop
         id="stop142"
         offset="1"
         style="stop-opacity:1;stop-color:#005b00" /></linearGradient><clipPath
       id="clipPath150"
       clipPathUnits="userSpaceOnUse"><path
         inkscape:connector-curvature="0"
         id="path152"
         d="M 0,600 H 800 V 0 H 0 Z" /></clipPath><clipPath
       id="clipPath196"
       clipPathUnits="userSpaceOnUse"><path
         inkscape:connector-curvature="0"
         id="path198"
         d="m 48.626,305.823 c -4.243,0 -7.683,-3.44 -7.683,-7.684 v 0 -80.773 l 1.941,1.169 c 0,0 4.774,3.998 12.192,13.113 v 0 c 7.416,9.117 12.851,17.682 4.275,35.09 v 0 c 0,0 -0.836,1.122 -1.944,2.793 v 0 c -0.383,0.538 -0.943,0.878 -1.496,1.388 v 0 c -2.673,4.17 -5.747,8.78 -2.673,14.927 v 0 c 3.072,4.611 9.218,6.146 13.829,4.611 v 0 c 9.218,-6.147 4.609,-16.905 -1.765,-23.148 v 0 c 0.033,-0.778 0.131,-1.561 0.277,-2.345 v 0 C 66.6,259.49 70.002,254.205 70.8,253.229 v 0 c 1.136,-1.395 4.814,-5.402 10.115,1.31 v 0 c 5.308,6.711 16.679,20.455 16.679,20.455 v 0 c 0,0 1.064,1.771 1.409,5.028 v 0 c 0.046,0.464 0.02,0.961 0.032,1.488 v 0 c 0.301,7.409 6.449,13.557 14.131,10.482 v 0 c 6.145,-3.073 7.682,-9.218 6.145,-15.365 v 0 c -1.534,-4.609 -6.145,-7.685 -12.54,-7.535 v 0 c -0.638,-0.307 -1.283,-0.636 -1.934,-0.998 v 0 c -3.258,-1.814 -6.679,-4.423 -10.068,-8.749 v 0 C 86.634,248.959 85.372,248.502 84.163,245.92 v 0 c -1.21,-2.58 -8.217,-12.012 7.246,-13.39 v 0 c 7.73,-0.688 13.809,1.881 18.039,4.752 v 0 c 0.704,0.48 1.354,0.966 1.923,1.461 v 0 c 0.256,5.614 8.54,9.625 13.152,8.086 v 0 c 7.682,-3.072 9.91,-10.422 7.081,-16.302 v 0 c -3.073,-6.146 -12.293,-9.222 -16.965,-3.197 v 0 c -0.56,0.061 -1.131,0.095 -1.693,0.136 v 0 C 76.255,227.785 63.217,208.714 60.167,202.869 v 0 h 76.048 c 4.244,0 7.683,3.44 7.683,7.681 v 0 87.589 c 0,4.244 -3.439,7.684 -7.683,7.684 v 0 z" /></clipPath><linearGradient
       id="linearGradient204"
       spreadMethod="pad"
       gradientTransform="matrix(71.63884,-112.92218,-112.92218,-71.63884,53.053223,312.46924)"
       gradientUnits="userSpaceOnUse"
       y2="0"
       x2="1"
       y1="0"
       x1="0"><stop
         id="stop206"
         offset="0"
         style="stop-opacity:1;stop-color:#9af732" /><stop
         id="stop208"
         offset="1"
         style="stop-opacity:1;stop-color:#005b00" /></linearGradient><clipPath
       id="clipPath216"
       clipPathUnits="userSpaceOnUse"><path
         inkscape:connector-curvature="0"
         id="path218"
         d="M 0,600 H 800 V 0 H 0 Z" /></clipPath><clipPath
       id="clipPath298"
       clipPathUnits="userSpaceOnUse"><path
         inkscape:connector-curvature="0"
         id="path300"
         d="m 48.626,436.822 c -4.243,0 -7.683,-3.44 -7.683,-7.682 v 0 -80.773 l 1.941,1.168 c 0,0 4.774,3.999 12.192,13.114 v 0 c 7.416,9.117 12.851,17.681 4.275,35.089 v 0 c 0,0 -0.836,1.121 -1.944,2.793 v 0 c -0.383,0.539 -0.943,0.877 -1.496,1.388 v 0 c -2.673,4.171 -5.747,8.78 -2.673,14.928 v 0 c 3.072,4.61 9.218,6.145 13.829,4.61 v 0 c 9.218,-6.147 4.609,-16.904 -1.765,-23.148 v 0 c 0.033,-0.778 0.131,-1.561 0.277,-2.344 v 0 c 1.021,-5.475 4.423,-10.76 5.221,-11.736 v 0 c 1.136,-1.395 4.814,-5.402 10.115,1.31 v 0 c 5.308,6.711 16.679,20.456 16.679,20.456 v 0 c 0,0 1.064,1.771 1.409,5.028 v 0 c 0.046,0.463 0.02,0.959 0.032,1.487 v 0 c 0.301,7.409 6.449,13.556 14.131,10.482 v 0 c 6.145,-3.073 7.682,-9.219 6.145,-15.365 v 0 c -1.534,-4.61 -6.145,-7.686 -12.54,-7.536 v 0 c -0.638,-0.306 -1.283,-0.635 -1.934,-0.998 v 0 c -3.258,-1.812 -6.679,-4.422 -10.068,-8.749 v 0 C 86.634,379.959 85.372,379.502 84.163,376.92 v 0 c -1.21,-2.58 -8.217,-12.011 7.246,-13.389 v 0 c 7.73,-0.689 13.809,1.88 18.039,4.751 v 0 c 0.704,0.48 1.354,0.966 1.923,1.461 v 0 c 0.256,5.615 8.54,9.624 13.152,8.086 v 0 c 7.682,-3.073 9.91,-10.423 7.081,-16.302 v 0 c -3.073,-6.146 -12.293,-9.221 -16.965,-3.196 v 0 c -0.56,0.061 -1.131,0.095 -1.693,0.134 v 0 c -36.691,0.32 -49.729,-18.75 -52.779,-24.596 v 0 h 76.048 c 4.244,0 7.683,3.439 7.683,7.682 v 0 87.589 c 0,4.242 -3.439,7.682 -7.683,7.682 v 0 z" /></clipPath><linearGradient
       id="linearGradient306"
       spreadMethod="pad"
       gradientTransform="matrix(71.63884,-112.92218,-112.92218,-71.63884,53.053223,443.46924)"
       gradientUnits="userSpaceOnUse"
       y2="0"
       x2="1"
       y1="0"
       x1="0"><stop
         id="stop308"
         offset="0"
         style="stop-opacity:1;stop-color:#9af732" /><stop
         id="stop310"
         offset="1"
         style="stop-opacity:1;stop-color:#005b00" /></linearGradient><clipPath
       id="clipPath318"
       clipPathUnits="userSpaceOnUse"><path
         inkscape:connector-curvature="0"
         id="path320"
         d="M 0,600 H 800 V 0 H 0 Z" /></clipPath><clipPath
       id="clipPath414"
       clipPathUnits="userSpaceOnUse"><path
         inkscape:connector-curvature="0"
         id="path416"
         d="m 48.626,48.822 c -4.243,0 -7.683,-3.439 -7.683,-7.682 v 0 V 0 h 22.035 c -0.682,2.924 -1.855,6.143 -3.627,9.738 v 0 c 0,0 -0.836,1.121 -1.944,2.794 v 0 c -0.383,0.537 -0.943,0.876 -1.496,1.387 v 0 c -2.673,4.171 -5.747,8.78 -2.673,14.928 v 0 c 3.072,4.61 9.218,6.145 13.829,4.61 v 0 C 76.285,27.31 71.676,16.553 65.302,10.309 v 0 c 0.033,-0.778 0.131,-1.561 0.277,-2.344 v 0 C 66.123,5.049 67.342,2.186 68.484,0 v 0 h 14.394 c 5.724,7.126 14.716,17.994 14.716,17.994 v 0 c 0,0 1.064,1.772 1.409,5.029 v 0 c 0.046,0.463 0.02,0.959 0.032,1.487 v 0 c 0.301,7.409 6.449,13.556 14.131,10.482 v 0 c 6.145,-3.073 7.682,-9.219 6.145,-15.365 v 0 c -1.534,-4.61 -6.145,-7.686 -12.54,-7.535 v 0 c -0.638,-0.306 -1.283,-0.636 -1.934,-0.999 v 0 C 101.579,9.28 98.158,6.671 94.769,2.344 v 0 C 94.107,1.5 93.491,0.72 92.916,0 v 0 h 50.982 v 41.14 c 0,4.243 -3.439,7.682 -7.683,7.682 v 0 z" /></clipPath><linearGradient
       id="linearGradient422"
       spreadMethod="pad"
       gradientTransform="matrix(112,-114,-114,-112,37.706055,49.727539)"
       gradientUnits="userSpaceOnUse"
       y2="0"
       x2="1"
       y1="0"
       x1="0"><stop
         id="stop424"
         offset="0"
         style="stop-opacity:1;stop-color:#ffffff" /><stop
         id="stop426"
         offset="1"
         style="stop-opacity:1;stop-color:#414142" /></linearGradient><clipPath
       id="clipPath434"
       clipPathUnits="userSpaceOnUse"><path
         inkscape:connector-curvature="0"
         id="path436"
         d="M 0,600 H 800 V 0 H 0 Z" /></clipPath><clipPath
       id="clipPath506"
       clipPathUnits="userSpaceOnUse"><path
         inkscape:connector-curvature="0"
         id="path508"
         d="m 48.626,179.823 c -4.243,0 -7.683,-3.44 -7.683,-7.684 v 0 -80.773 l 1.941,1.169 c 0,0 4.774,3.998 12.192,13.113 v 0 c 7.416,9.117 12.851,17.682 4.275,35.09 v 0 c 0,0 -0.836,1.122 -1.944,2.793 v 0 c -0.383,0.538 -0.943,0.878 -1.496,1.388 v 0 c -2.673,4.17 -5.747,8.78 -2.673,14.927 v 0 c 3.072,4.611 9.218,6.146 13.829,4.611 v 0 c 9.218,-6.147 4.609,-16.905 -1.765,-23.148 v 0 c 0.033,-0.778 0.131,-1.561 0.277,-2.345 v 0 C 66.6,133.49 70.002,128.205 70.8,127.229 v 0 c 1.136,-1.395 4.814,-5.402 10.115,1.31 v 0 c 5.308,6.711 16.679,20.455 16.679,20.455 v 0 c 0,0 1.064,1.771 1.409,5.028 v 0 c 0.046,0.464 0.02,0.961 0.032,1.488 v 0 c 0.301,7.409 6.449,13.557 14.131,10.482 v 0 c 6.145,-3.073 7.682,-9.218 6.145,-15.365 v 0 c -1.534,-4.609 -6.145,-7.685 -12.54,-7.535 v 0 c -0.638,-0.307 -1.283,-0.636 -1.934,-0.998 v 0 c -3.258,-1.814 -6.679,-4.423 -10.068,-8.749 v 0 C 86.634,122.959 85.372,122.502 84.163,119.92 v 0 c -1.21,-2.58 -8.217,-12.012 7.246,-13.39 v 0 c 7.73,-0.688 13.809,1.881 18.039,4.752 v 0 c 0.704,0.48 1.354,0.966 1.923,1.461 v 0 c 0.256,5.614 8.54,9.625 13.152,8.086 v 0 c 7.682,-3.072 9.91,-10.422 7.081,-16.302 v 0 c -3.073,-6.146 -12.293,-9.222 -16.965,-3.197 v 0 c -0.56,0.061 -1.131,0.096 -1.693,0.136 v 0 C 76.256,101.786 63.218,82.715 60.167,76.869 v 0 h 76.048 c 4.244,0 7.683,3.44 7.683,7.682 v 0 87.588 c 0,4.244 -3.439,7.684 -7.683,7.684 v 0 z" /></clipPath><linearGradient
       id="linearGradient514"
       spreadMethod="pad"
       gradientTransform="matrix(112,-114,-114,-112,37.706055,180.72754)"
       gradientUnits="userSpaceOnUse"
       y2="0"
       x2="1"
       y1="0"
       x1="0"><stop
         id="stop516"
         offset="0"
         style="stop-opacity:1;stop-color:#ffffff" /><stop
         id="stop518"
         offset="1"
         style="stop-opacity:1;stop-color:#414142" /></linearGradient><clipPath
       id="clipPath526"
       clipPathUnits="userSpaceOnUse"><path
         inkscape:connector-curvature="0"
         id="path528"
         d="M 0,600 H 800 V 0 H 0 Z" /></clipPath></defs><sodipodi:namedview
     inkscape:document-rotation="0"
     inkscape:current-layer="g10"
     inkscape:window-maximized="1"
     inkscape:window-y="28"
     inkscape:window-x="0"
     inkscape:cy="56.00723"
     inkscape:cx="831.08358"
     inkscape:zoom="0.606"
     showgrid="false"
     id="namedview4"
     inkscape:window-height="997"
     inkscape:window-width="1920"
     inkscape:pageshadow="2"
     inkscape:pageopacity="0"
     guidetolerance="10"
     gridtolerance="10"
     objecttolerance="10"
     borderopacity="1"
     bordercolor="#666666"
     pagecolor="#ffffff" /><g
     transform="matrix(1.25,0,0,-1.25,-70.98073,461.05225)"
     inkscape:label="final"
     inkscape:groupmode="layer"
     id="g10"><g
       transform="translate(15.841584,-201.9802)"
       id="g12"><g
         clip-path="url(#clipPath16)"
         id="g14"><g
           transform="translate(136.874,569.5591)"
           id="g20"><path
             inkscape:connector-curvature="0"
             id="path22"
             style="fill:#666666;fill-opacity:1;fill-rule:nonzero;stroke:none"
             d="m 0,0 h -87.589 c -4.243,0 -7.684,-3.44 -7.684,-7.684 v -80.773 l 1.942,1.169 c 0,0 4.774,3.998 12.191,13.114 7.416,9.115 12.85,17.681 4.275,35.089 0,0 -0.836,1.121 -1.943,2.793 -0.384,0.539 -0.944,0.878 -1.497,1.388 -2.673,4.17 -5.746,8.78 -2.673,14.927 3.073,4.611 9.218,6.146 13.83,4.611 9.217,-6.147 4.609,-16.903 -1.766,-23.148 0.034,-0.777 0.131,-1.562 0.277,-2.344 1.021,-5.475 4.424,-10.759 5.222,-11.737 1.136,-1.394 4.814,-5.4 10.114,1.311 5.308,6.711 16.679,20.456 16.679,20.456 0,0 1.065,1.769 1.409,5.028 0.046,0.464 0.02,0.959 0.032,1.487 0.301,7.409 6.451,13.556 14.131,10.482 6.146,-3.073 7.683,-9.218 6.146,-15.365 -1.535,-4.61 -6.146,-7.685 -12.54,-7.535 -0.639,-0.305 -1.283,-0.636 -1.935,-0.998 -3.257,-1.813 -6.679,-4.422 -10.068,-8.749 -8.134,-10.387 -9.397,-10.842 -10.605,-13.425 -1.211,-2.58 -8.218,-12.011 7.245,-13.389 7.73,-0.689 13.809,1.879 18.039,4.752 0.705,0.477 1.354,0.965 1.924,1.459 0.256,5.615 8.54,9.625 13.151,8.087 7.683,-3.072 9.91,-10.423 7.082,-16.301 -3.073,-6.146 -12.293,-9.222 -16.966,-3.199 -0.56,0.063 -1.131,0.097 -1.693,0.138 -36.689,0.319 -49.728,-18.751 -52.779,-24.598 H 0 c 4.244,0 7.683,3.439 7.683,7.682 V -7.684 C 7.683,-3.44 4.244,0 0,0" /></g></g></g><g
       transform="translate(15.841584,-201.9802)"
       id="g24"><g
         clip-path="url(#clipPath28)"
         id="g26"><g
           id="g32"><g
             id="g34"><path
               inkscape:connector-curvature="0"
               id="path42"
               style="fill:url(#linearGradient36);stroke:none"
               d="m 48.626,570.822 c -4.243,0 -7.683,-3.439 -7.683,-7.682 v 0 -80.774 l 1.941,1.169 c 0,0 4.774,3.999 12.192,13.114 v 0 c 7.416,9.116 12.851,17.681 4.275,35.089 v 0 c 0,0 -0.836,1.12 -1.944,2.794 v 0 c -0.383,0.537 -0.943,0.876 -1.496,1.386 v 0 c -2.673,4.172 -5.747,8.781 -2.673,14.929 v 0 c 3.072,4.61 9.218,6.145 13.829,4.61 v 0 c 9.218,-6.147 4.609,-16.904 -1.765,-23.147 v 0 c 0.033,-0.778 0.131,-1.563 0.277,-2.346 v 0 c 1.021,-5.475 4.423,-10.758 5.221,-11.736 v 0 c 1.136,-1.395 4.814,-5.401 10.115,1.311 v 0 c 5.308,6.711 16.679,20.455 16.679,20.455 v 0 c 0,0 1.064,1.771 1.409,5.028 v 0 c 0.046,0.464 0.02,0.96 0.032,1.488 v 0 c 0.301,7.408 6.449,13.556 14.131,10.482 v 0 c 6.145,-3.074 7.682,-9.218 6.145,-15.365 v 0 c -1.534,-4.61 -6.145,-7.685 -12.54,-7.536 v 0 c -0.638,-0.306 -1.283,-0.635 -1.934,-0.998 v 0 c -3.258,-1.813 -6.679,-4.422 -10.068,-8.749 v 0 C 86.634,513.959 85.372,513.502 84.163,510.919 v 0 c -1.21,-2.58 -8.217,-12.01 7.246,-13.389 v 0 c 7.73,-0.689 13.809,1.881 18.039,4.752 v 0 c 0.704,0.48 1.354,0.966 1.923,1.461 v 0 c 0.256,5.614 8.54,9.623 13.152,8.086 v 0 c 7.682,-3.072 9.91,-10.423 7.081,-16.303 v 0 c -3.073,-6.146 -12.293,-9.22 -16.965,-3.196 v 0 c -0.56,0.062 -1.131,0.095 -1.693,0.136 v 0 c -36.691,0.32 -49.729,-18.751 -52.779,-24.597 v 0 h 76.048 c 4.244,0 7.683,3.439 7.683,7.682 v 0 87.589 c 0,4.243 -3.439,7.682 -7.683,7.682 v 0 z" /></g></g></g></g><g
       transform="translate(15.841584,-201.9802)"
       id="g44"><g
         clip-path="url(#clipPath48)"
         id="g46"><g
           transform="translate(533.6855,477.1636)"
           id="g52"><path
             inkscape:connector-curvature="0"
             id="path54"
             style="fill:#666666;fill-opacity:1;fill-rule:nonzero;stroke:none"
             d="m 0,0 v -1.735 c 0,-4.568 -3.515,-8.247 -8.083,-8.247 h -5.6 v 1.757 h 5.6 c 3.537,0 6.326,2.976 6.326,6.49 h -14.201 c 0,4.546 3.703,8.225 8.249,8.225 h 5.952 V 4.569 h -5.952 c -2.811,0 -5.271,-1.922 -6.14,-4.569 z" /></g><g
           transform="translate(561.0967,475.4287)"
           id="g56"><path
             inkscape:connector-curvature="0"
             id="path58"
             style="fill:#666666;fill-opacity:1;fill-rule:nonzero;stroke:none"
             d="m 0,0 c 0,3.515 -2.787,6.491 -6.304,6.491 -3.655,0 -6.467,-2.976 -6.467,-6.491 0,-3.491 2.812,-6.303 6.467,-6.303 C -2.787,-6.303 0,-3.491 0,0 m 1.757,0 c 0,-4.545 -3.654,-8.248 -8.061,-8.248 -4.545,0 -8.225,3.703 -8.225,8.248 0,4.57 3.68,8.225 8.225,8.225 4.407,0 8.061,-3.655 8.061,-8.225" /></g><g
           transform="translate(591.624,475.2417)"
           id="g60"><path
             inkscape:connector-curvature="0"
             id="path62"
             style="fill:#666666;fill-opacity:1;fill-rule:nonzero;stroke:none"
             d="m 0,0 c 0,-4.476 -3.608,-8.084 -8.084,-8.084 -4.312,0 -7.921,3.608 -7.921,8.084 v 8.436 h 1.71 V 0 c 0,-3.468 2.767,-6.21 6.211,-6.21 3.607,0 6.372,2.742 6.372,6.21 z" /></g><g
           transform="translate(620.8613,483.6772)"
           id="g64"><path
             inkscape:connector-curvature="0"
             id="path66"
             style="fill:#666666;fill-opacity:1;fill-rule:nonzero;stroke:none"
             d="m 0,0 v -8.178 c 0,-4.639 -3.727,-8.342 -8.365,-8.342 -4.615,0 -8.34,3.703 -8.34,8.342 V 0 h 1.78 v -8.225 c 0.046,-3.467 3.022,-6.514 6.56,-6.514 3.56,0 6.584,3.023 6.584,6.561 V 0 Z" /></g><g
           transform="translate(650.2393,475.3818)"
           id="g68"><path
             inkscape:connector-curvature="0"
             id="path70"
             style="fill:#666666;fill-opacity:1;fill-rule:nonzero;stroke:none"
             d="m 0,0 h -1.759 c 0,3.351 -2.435,5.976 -5.389,6.28 V -8.178 H -9.093 V 6.28 C -12.045,5.976 -14.458,3.351 -14.458,0 h -1.944 c 0,4.547 3.677,8.225 8.177,8.225 C -3.68,8.225 0,4.547 0,0" /></g><path
           inkscape:connector-curvature="0"
           id="path72"
           style="fill:#666666;fill-opacity:1;fill-rule:nonzero;stroke:none"
           d="m 664.901,467.204 h -1.78 v 16.473 h 1.78 z" /><g
           transform="translate(692.1982,475.4287)"
           id="g74"><path
             inkscape:connector-curvature="0"
             id="path76"
             style="fill:#666666;fill-opacity:1;fill-rule:nonzero;stroke:none"
             d="m 0,0 c 0,3.515 -2.787,6.491 -6.302,6.491 -3.656,0 -6.468,-2.976 -6.468,-6.491 0,-3.491 2.812,-6.303 6.468,-6.303 C -2.787,-6.303 0,-3.491 0,0 m 1.757,0 c 0,-4.545 -3.653,-8.248 -8.059,-8.248 -4.547,0 -8.226,3.703 -8.226,8.248 0,4.57 3.679,8.225 8.226,8.225 4.406,0 8.059,-3.655 8.059,-8.225" /></g><g
           transform="translate(723.2402,475.4053)"
           id="g78"><path
             inkscape:connector-curvature="0"
             id="path80"
             style="fill:#666666;fill-opacity:1;fill-rule:nonzero;stroke:none"
             d="M 0,0 V -8.248 H -1.899 V 0 c 0,3.515 -2.834,6.374 -6.372,6.374 -3.492,0 -6.491,-2.859 -6.491,-6.374 V -8.248 H -16.52 V 0 c 0,4.569 3.703,8.272 8.249,8.272 C -3.703,8.272 0,4.569 0,0" /></g><g
           transform="translate(753.0879,477.1636)"
           id="g82"><path
             inkscape:connector-curvature="0"
             id="path84"
             style="fill:#666666;fill-opacity:1;fill-rule:nonzero;stroke:none"
             d="m 0,0 v -1.735 c 0,-4.568 -3.516,-8.247 -8.084,-8.247 h -5.602 v 1.757 h 5.602 c 3.537,0 6.325,2.976 6.325,6.49 h -14.199 c 0,4.546 3.702,8.225 8.247,8.225 h 5.952 V 4.569 h -5.952 c -2.81,0 -5.27,-1.922 -6.139,-4.569 z" /></g><g
           transform="translate(200.5625,491.1016)"
           id="g86"><path
             inkscape:connector-curvature="0"
             id="path88"
             style="fill:#66cc00;fill-opacity:1;fill-rule:nonzero;stroke:none"
             d="m 0,0 c -16.566,0 -29.819,13.253 -29.819,29.66 0,16.566 13.253,29.819 29.819,29.819 V 53.168 C -12.7,53.168 -22.877,42.361 -22.877,29.66 -22.877,17.118 -12.7,6.942 0,6.942 c 12.542,0 23.35,10.176 23.35,22.718 H 0 v 6.389 H 29.659 V 29.66 C 29.659,13.253 16.408,0 0,0" /></g><g
           transform="translate(297.9053,518.8687)"
           id="g90"><path
             inkscape:connector-curvature="0"
             id="path92"
             style="fill:#66cc00;fill-opacity:1;fill-rule:nonzero;stroke:none"
             d="m 0,0 h -6.547 c 0,11.833 -9.388,21.931 -21.221,21.931 -11.673,0 -21.771,-10.098 -21.771,-21.931 v -27.609 h -5.837 V 0 c 0,15.383 12.385,27.768 27.608,27.768 C -12.384,27.768 0,15.383 0,0" /></g><g
           transform="translate(365.5093,513.2686)"
           id="g94"><path
             inkscape:connector-curvature="0"
             id="path96"
             style="fill:#66cc00;fill-opacity:1;fill-rule:nonzero;stroke:none"
             d="m 0,0 h -28.083 v 5.995 h 22.088 c 0,11.99 -9.545,21.457 -22.088,21.457 -11.99,0 -21.456,-9.467 -21.456,-21.457 0,-12.542 9.466,-22.087 21.456,-22.087 v -5.996 c -14.909,0 -27.452,12.542 -27.452,28.083 0,14.909 12.543,27.452 27.452,27.452 C -12.542,33.447 0,20.904 0,5.995 Z" /></g><g
           transform="translate(430.1143,513.2686)"
           id="g98"><path
             inkscape:connector-curvature="0"
             id="path100"
             style="fill:#66cc00;fill-opacity:1;fill-rule:nonzero;stroke:none"
             d="m 0,0 h -28.082 v 5.995 h 22.087 c 0,11.99 -9.544,21.457 -22.087,21.457 -11.991,0 -21.456,-9.467 -21.456,-21.457 0,-12.542 9.465,-22.087 21.456,-22.087 v -5.996 c -14.909,0 -27.451,12.542 -27.451,28.083 0,14.909 12.542,27.452 27.451,27.452 C -12.541,33.447 0,20.904 0,5.995 Z" /></g><g
           transform="translate(496.377,518.8687)"
           id="g102"><path
             inkscape:connector-curvature="0"
             id="path104"
             style="fill:#66cc00;fill-opacity:1;fill-rule:nonzero;stroke:none"
             d="M 0,0 V -27.767 H -6.39 V 0 c 0,11.833 -9.545,21.457 -21.456,21.457 -11.753,0 -21.851,-9.624 -21.851,-21.457 v -27.767 h -5.915 V 0 c 0,15.383 12.463,27.847 27.766,27.847 C -12.464,27.847 0,15.383 0,0" /></g><g
           transform="translate(536.6865,491.1016)"
           id="g106"><path
             inkscape:connector-curvature="0"
             id="path108"
             style="fill:#000000;fill-opacity:1;fill-rule:nonzero;stroke:none"
             d="m 0,0 c -14.908,0 -27.452,12.464 -27.452,27.531 0,15.461 12.544,28.004 27.452,28.004 v -5.916 c -11.99,0 -21.535,-9.546 -21.535,-22.088 0,-12.069 9.545,-21.536 21.535,-21.536 12.147,0 22.324,9.703 22.089,22.009 h 5.994 C 28.319,12.701 15.776,0 0,0" /></g><g
           transform="translate(620.54,518.9478)"
           id="g110"><path
             inkscape:connector-curvature="0"
             id="path112"
             style="fill:#000000;fill-opacity:1;fill-rule:nonzero;stroke:none"
             d="m 0,0 c 0,11.833 -9.386,21.852 -21.221,21.852 -12.304,0 -21.77,-10.019 -21.77,-21.852 0,-11.753 9.466,-21.22 21.77,-21.22 C -9.386,-21.22 0,-11.753 0,0 m 5.917,0 c 0,-15.303 -12.307,-27.767 -27.138,-27.767 -15.301,0 -27.687,12.464 -27.687,27.767 0,15.383 12.386,27.689 27.687,27.689 C -6.39,27.689 5.917,15.383 5.917,0" /></g><g
           transform="translate(693.2715,518.8687)"
           id="g114"><path
             inkscape:connector-curvature="0"
             id="path116"
             style="fill:#000000;fill-opacity:1;fill-rule:nonzero;stroke:none"
             d="m 0,0 h -6.549 c 0,11.833 -9.386,21.931 -21.22,21.931 C -39.444,21.931 -49.54,11.833 -49.54,0 v -27.609 h -5.839 V 0 c 0,15.383 12.386,27.768 27.61,27.768 C -12.387,27.768 0,15.383 0,0" /></g><g
           transform="translate(760.875,513.2686)"
           id="g118"><path
             inkscape:connector-curvature="0"
             id="path120"
             style="fill:#000000;fill-opacity:1;fill-rule:nonzero;stroke:none"
             d="m 0,0 h -28.083 v 5.995 h 22.087 c 0,11.99 -9.544,21.457 -22.087,21.457 -11.992,0 -21.458,-9.467 -21.458,-21.457 0,-12.542 9.466,-22.087 21.458,-22.087 v -5.996 c -14.908,0 -27.451,12.542 -27.451,28.083 0,14.909 12.543,27.452 27.451,27.452 C -12.543,33.447 0,20.904 0,5.995 Z" /></g><g
           transform="translate(136.874,685.6904)"
           id="g122" /></g></g></g></svg>
