<?xml version="1.0" standalone="no"?>
<!DOCTYPE svg PUBLIC "-//W3C//DTD SVG 20010904//EN" "http://www.w3.org/TR/2001/REC-SVG-20010904/DTD/svg10.dtd">
<!-- Created using Krita: http://krita.org -->
<svg xmlns="http://www.w3.org/2000/svg" 
    xmlns:xlink="http://www.w3.org/1999/xlink"
    xmlns:krita="http://krita.org/namespaces/svg/krita"
    xmlns:sodipodi="http://sodipodi.sourceforge.net/DTD/sodipodi-0.dtd"
    width="1000pt"
    height="750pt"
    viewBox="0 0 1000 750">
<defs/>
<g id="group0" transform="translate(260.602948104023, 35.1416095623089)" fill="none">
  <path id="shape0" transform="translate(390.919937388715, 425.911683953446)" fill="#fff4c2" fill-rule="evenodd" stroke="#522c2b" stroke-width="3.99999999999968" stroke-linecap="square" stroke-linejoin="bevel" d="M49.0149 68.1546L95.5644 67.0285L106.782 20.0998L106.733 17.1848L87.6554 4.72724L98.4676 0L136.096 3.82661L99.7807 164.726L0 121.551L8.30866 80.1599L22.8284 71.511C22.8284 71.511 31.5572 70.3922 49.0149 68.1546Z"/>
  <path id="shape1" transform="translate(92.9431596689147, 94.4272631407172)" fill="#9f77a9" fill-rule="evenodd" stroke="#522c2b" stroke-width="6.99999999999944" stroke-linecap="square" stroke-linejoin="bevel" d="M96.5877 88.1716C138.585 67.7403 158.165 60.3623 155.328 66.0377L208.797 0C207.503 8.07091 202.303 23.3136 200.439 38.476L123.829 281.418C129.345 300.723 141.924 317.325 169.8 307.808C202.189 197.553 228.382 117.585 254.079 45.6063C328.873 49.203 382.788 85.167 419.232 130.737L370.708 313.768C334.985 329.138 318.86 319.871 303.455 290.782L331.548 195.436L305.158 160.107C267.023 262.973 232.96 364.136 198.744 463.597C160.148 471.824 91.5585 452.123 49.7659 419.329C-58.7532 353.017 35.0562 202.827 96.5877 88.1716Z"/>
  <path id="shape2" transform="translate(94.5984612868151, 158.129170184048)" fill="#5b405f" fill-rule="evenodd" stroke="#522c2b" stroke-width="3.99999999999968" stroke-linecap="square" stroke-linejoin="bevel" d="M167.476 0C129.604 87.0887 89.8061 173.704 76.9605 257.778C64.667 287.1 139.149 342.881 175.655 363.834C180.545 366.324 186.638 368.903 199.806 372.004L207.185 372.223C204.586 380.095 202.212 388.539 200.064 397.556C171.251 405.208 135.351 398.722 92.3633 378.099C-38.7453 324.63 -1.36256 232.628 30.7371 150.839C49.8356 109.851 70.1517 68.537 94.6749 26.0955C92.4309 28.6489 116.698 19.9504 167.476 0Z"/>
  <path id="shape3" transform="translate(425.862500694247, 201.120808744362)" fill="#5b405f" fill-rule="evenodd" stroke="#522c2b" stroke-width="3.99999999999968" stroke-linecap="square" stroke-linejoin="bevel" d="M58.8186 0L0 209.357C10.6853 213.585 21.8518 213.778 34.2303 203.809C45.3829 172.095 76.8812 58.4046 82.2968 25.8026C83.4551 18.8869 75.629 10.2861 58.8186 0Z"/>
  <ellipse id="shape4" transform="translate(203.457313620966, 291.717180413419)" rx="10.5197095946623" ry="9.24940215923078" cx="10.5197095946623" cy="9.24940215923078" fill="#547181" fill-rule="evenodd" stroke="#547181" stroke-width="4.9999999999996" stroke-linecap="square" stroke-linejoin="bevel"/>
  <path id="shape5" transform="matrix(0.990616791187979 0.0478885092734149 -0.0458770945205308 0.949008871908765 154.299636908386 266.80092116695)" fill="#547181" fill-rule="evenodd" stroke="#547181" stroke-width="13.9999999999989" stroke-linecap="square" stroke-linejoin="miter" stroke-miterlimit="2" d="M0 0L52.4603 26.9984"/>
  <ellipse id="shape0" transform="matrix(0.982376524264635 0 0 0.91152059085512 228.633145791336 242.492392935936)" rx="10.5197095946623" ry="9.24940215923078" cx="10.5197095946623" cy="9.24940215923078" fill="#547181" fill-rule="evenodd" stroke="#547181" stroke-width="4.9999999999996" stroke-linecap="square" stroke-linejoin="bevel"/>
  <path id="shape1" transform="matrix(0.981230644992863 0.0440134329830747 -0.0474347631294921 0.91045736048972 179.982223437085 218.535549300923)" fill="#547181" fill-rule="evenodd" stroke="#547181" stroke-width="13.9999999999989" stroke-linecap="square" stroke-linejoin="miter" stroke-miterlimit="2" d="M0 0L52.4603 26.9984"/>
  <ellipse id="shape01" transform="matrix(0.0667435873734751 -1.10531444690126 1.17595187884898 0.0710089759461636 202.46880347157 458.972874495413)" rx="9.19899975657192" ry="8.39651933030947" cx="9.19899975657192" cy="8.39651933030947" fill="#547181" fill-rule="evenodd" stroke="#547181" stroke-width="4.9999999999996" stroke-linecap="square" stroke-linejoin="bevel"/>
  <path id="shape11" transform="matrix(0.123447424808194 -1.10059644850341 1.17135744379422 0.124297058433585 168.080414090367 514.765459118931)" fill="#547181" fill-rule="evenodd" stroke="#547181" stroke-width="13.9999999999989" stroke-linecap="square" stroke-linejoin="miter" stroke-miterlimit="2" d="M0 0L52.4603 26.9984"/>
  <path id="shape6" transform="translate(125.312794827756, 328.007649631536)" fill="#547181" fill-rule="evenodd" stroke="#547181" stroke-width="13.9999999999989" stroke-linecap="square" stroke-linejoin="miter" stroke-miterlimit="2" d="M0 0L62.5237 25.7058"/>
  <path id="shape7" transform="translate(221.455701171823, 485.714369986554)" fill="#547181" fill-rule="evenodd" stroke="#547181" stroke-width="3.99999999999968" stroke-linecap="square" stroke-linejoin="bevel" d="M0 61.7689L11.5753 66.7199L48.9413 4L42.0131 0C42.0131 0 28.0088 20.5896 0 61.7689Z"/>
  <path id="shape8" transform="translate(96.2445178035078, 412.076871998169)" fill="#547181" fill-rule="evenodd" stroke="#547181" stroke-width="0.99999999999992" stroke-linecap="square" stroke-linejoin="bevel" d="M75.0695 0L0 23.2785L4.69282 40.3538L78.6804 14.5632C78.6804 14.5632 77.4768 9.70877 75.0695 0Z"/>
  <ellipse id="shape02" transform="matrix(0.999999975823041 0 0 0.999999975823041 184.013545216953 347.820620218138)" rx="10.5197095946623" ry="9.24940215923078" cx="10.5197095946623" cy="9.24940215923078" fill="#547181" fill-rule="evenodd" stroke="#547181" stroke-width="4.9999999999996" stroke-linecap="square" stroke-linejoin="bevel"/>
  <ellipse id="shape03" transform="matrix(0.932071499459135 -0.362274304280737 0.362274304280737 0.932071499459135 169.411916788166 410.745538500751)" rx="10.3511492688599" ry="9.90036159732943" cx="10.3511492688599" cy="9.90036159732943" fill="#547181" fill-rule="evenodd" stroke="#547181" stroke-width="4.9999999999996" stroke-linecap="square" stroke-linejoin="bevel"/>
  <ellipse id="shape04" transform="matrix(0.999999975823041 0 0 0.999999975823041 260.315761504886 468.661313860398)" rx="10.5197095946623" ry="9.24940215923078" cx="10.5197095946623" cy="9.24940215923078" fill="#547181" fill-rule="evenodd" stroke="#547181" stroke-width="4.9999999999996" stroke-linecap="square" stroke-linejoin="bevel"/>
  <path id="shape9" transform="translate(469.502159480795, 232.854177113603)" fill="none" stroke="#547181" stroke-width="9.9999999999992" stroke-linecap="square" stroke-linejoin="miter" stroke-miterlimit="2" d="M0 0L28.2062 9.64535"/>
  <path id="shape10" transform="translate(450.997349588811, 279.905448371672)" fill="none" stroke="#547181" stroke-width="9.9999999999992" stroke-linecap="square" stroke-linejoin="miter" stroke-miterlimit="2" d="M0 0L34.9939 10.3888"/>
  <path id="shape11" transform="translate(441.311287584058, 331.182200672891)" fill="none" stroke="#547181" stroke-width="9.9999999999992" stroke-linecap="square" stroke-linejoin="miter" stroke-miterlimit="2" d="M0 0L31.6458 10.1878"/>
  <path id="shape12" transform="translate(419.092375992565, 376.666484597255)" fill="none" stroke="#547181" stroke-width="9.9999999999992" stroke-linecap="square" stroke-linejoin="miter" stroke-miterlimit="2" d="M0 0L38.7325 13.4133"/>
  <ellipse id="shape05" transform="matrix(0.932071480350044 -0.362274296853482 0.362274296853482 0.932071480350044 447.04210485578 225.083030375887)" rx="10.3511492688599" ry="9.90036159732943" cx="10.3511492688599" cy="9.90036159732943" fill="#547181" fill-rule="evenodd" stroke="#547181" stroke-width="4.9999999999996" stroke-linecap="square" stroke-linejoin="bevel"/>
  <ellipse id="shape06" transform="matrix(0.932071480350044 -0.362274296853482 0.362274296853482 0.932071480350044 435.483448122983 272.103210365927)" rx="10.3511492688599" ry="9.90036159732943" cx="10.3511492688599" cy="9.90036159732943" fill="#547181" fill-rule="evenodd" stroke="#547181" stroke-width="4.9999999999996" stroke-linecap="square" stroke-linejoin="bevel"/>
  <ellipse id="shape07" transform="matrix(0.932071480350044 -0.362274296853482 0.362274296853482 0.932071480350044 420.192740684684 321.587491903716)" rx="10.3511492688599" ry="9.90036159732943" cx="10.3511492688599" cy="9.90036159732943" fill="#547181" fill-rule="evenodd" stroke="#547181" stroke-width="4.9999999999996" stroke-linecap="square" stroke-linejoin="bevel"/>
  <ellipse id="shape08" transform="matrix(0.932071480350044 -0.362274296853482 0.362274296853482 0.932071480350044 405.085045943271 371.754786124716)" rx="10.3511492688599" ry="9.90036159732943" cx="10.3511492688599" cy="9.90036159732943" fill="#547181" fill-rule="evenodd" stroke="#547181" stroke-width="4.9999999999996" stroke-linecap="square" stroke-linejoin="bevel"/>
  <path id="shape13" transform="translate(385.969782003332, 384.84644956496)" fill="#fd6c71" fill-rule="evenodd" stroke="#522c2b" stroke-width="6.99999999999944" stroke-linecap="square" stroke-linejoin="bevel" d="M10.7907 0C31.7999 36.8538 49.3464 35.1653 79.5219 17.454C75.0949 33.9367 69.2904 50.3536 65.4322 61.8582C40.268 67.7109 16.0526 70.0058 0 41.6901C0.41827 35.9656 4.01517 22.0689 10.7907 0Z"/>
  <path id="shape14" transform="translate(371.938484963098, 428.497977830856)" fill="#547181" fill-rule="evenodd" stroke="#522c2b" stroke-width="6.99999999999944" stroke-linecap="square" stroke-linejoin="bevel" d="M12.3812 0L0 42.4986C2.5046 47.9238 0.347332 61.204 17.8155 59.7339L33.1244 14.5937C31.7275 20.31 24.813 15.4454 12.3812 0Z"/>
  <path id="shape09" transform="matrix(0.999999963679958 0 0 0.999999963679958 390.743589436858 446.560476045559)" fill="#547181" fill-rule="evenodd" stroke="#522c2b" stroke-width="6.99999999999944" stroke-linecap="square" stroke-linejoin="bevel" d="M13.4701 0L0 44.6487C5.58692 53.7451 7.09299 61.4321 20.816 52.7684L37.4508 1.59779C29.514 10.1911 20.8255 4.74202 13.4701 0Z"/>
  <path id="shape15" transform="translate(416.335558018437, 447.552697158453)" fill="#547181" fill-rule="evenodd" stroke="#522c2b" stroke-width="6.99999999999944" stroke-linecap="square" stroke-linejoin="bevel" d="M33.4374 0L20.3491 43.8828C9.42727 56.392 2.85257 50.4657 0 47.8447L13.9732 6.33626C14.1336 6.29267 20.6216 4.18059 33.4374 0Z"/>
  <path id="shape16" transform="translate(344.284287303272, 481.85089533497)" fill="#fff4c2" fill-rule="evenodd" stroke="#522c2b" stroke-width="3.99999999999968" stroke-linecap="square" stroke-linejoin="bevel" d="M26.4928 0L23.8379 46.0985L20.9425 62.6134C17.1926 59.5285 8.5593 60.7739 16.4832 47.3372L22.2888 45.7816L23.4964 46.1901L24.1794 46.007L21.5323 41.592C18.4849 40.8702 15.9166 39.3185 10.238 43.1542C-7.26339 68.9078 -2.32643 83.6901 25.0489 87.5009C35.0255 87.1613 43.0063 81.9125 50.1308 74.5578L56.6518 23.7631C44.7978 13.4999 46.8525 13.8345 44.6001 10.8872C37.2122 11.0495 31.1765 7.42039 26.4928 0Z"/>
  <path id="shape17" transform="translate(378.057140642517, 493.578533598324)" fill="#fff4c2" fill-rule="evenodd" stroke="#522c2b" stroke-width="3.99999999999968" stroke-linecap="square" stroke-linejoin="bevel" d="M22.094 31.6452C32.8272 60.196 46.9655 72.2078 64.5089 67.6805C74.7772 59.2007 84.3545 49.6874 79.2334 30.4267C73.3179 27.5098 67.1316 25.2345 59.1539 27.2054C53.9875 34.1382 54.7806 41.4288 53.7251 48.6084C39.5713 39.3748 31.6832 27.8059 45.2844 8.22812L60.2828 0L92.4523 0.530853C107.36 10.8079 109.011 28.5607 109.316 47.0729L97.9136 72.8216L79.8245 96.1529C76.4169 101.3 70.0574 105.522 64.067 107.696C57.2019 110.186 51.8179 111.155 40.7588 108.817C35.1376 106.717 27.3834 105.936 22.4628 102.006C17.5422 98.0763 4.45992 95.0418 0 76.913C20.0742 66.5349 21.1823 49.2568 19.9411 31.1239C19.311 31.0488 20.0286 31.2226 22.094 31.6452Z"/>
  <path id="shape18" transform="translate(451.450365912124, 467.761870885557)" fill="#fff4c2" fill-rule="evenodd" stroke="#522c2b" stroke-width="3.99999999999968" stroke-linecap="square" stroke-linejoin="bevel" d="M0 129.974L25.9354 96.3663L36.5027 72.0529L37.2005 63.066L70.3571 8.11194C84.95 -2.7568 93.0973 -0.876495 100.111 3.24515L114.101 12.9552C90.9032 13.2052 84.4232 23.3431 76.9917 34.8043C67.1681 80.6519 57.8116 128.543 41.484 130.246C37.1916 132.634 30.0921 134.148 20.1343 133.638C16.7967 134.705 10.0853 133.483 0 129.974Z"/>
  <path id="shape19" transform="translate(0, 158.626583588174)" fill="#fd6c71" fill-rule="evenodd" stroke="#522c2b" stroke-width="4.9999999999996" stroke-linecap="square" stroke-linejoin="bevel" d="M150.936 0L0 10.4291L28.2128 25.5631L14.4808 45.3477C14.4808 45.3477 59.9659 30.2318 150.936 0Z"/>
  <path id="shape20" transform="translate(45.6602611840284, 0)" fill="#9f77a9" fill-rule="evenodd" stroke="#522c2b" stroke-width="6.99999999999944" stroke-linecap="square" stroke-linejoin="bevel" d="M257.094 98.3735C260.609 79.0924 257.526 27.7532 211.124 9.78388C182.31 -3.48299 157.769 -3.25753 137.503 10.4603C107.506 15.39 104.681 21.8324 92.7923 44.6874L77.9531 52.0483L0 56.3646L3.16673 122.387C68.5943 135.381 101.527 125.719 125.159 106.702C126.673 120.619 129.383 133.737 124.386 151.994C112.495 160.368 97.1302 163.498 83.2187 166.129L23.6032 170.08C28.1225 187.046 31.3506 199.164 33.2875 206.435C115.447 191.743 177.268 177.077 214.748 155.048C246.238 135.864 251.287 117.009 257.094 98.3735Z"/>
  <path id="shape21" transform="translate(166.55080271405, 65.7887521220739)" sodipodi:type="arc" sodipodi:rx="24.499999999998" sodipodi:ry="21.4999999999983" sodipodi:cx="24.5015954525519" sodipodi:cy="17.9877120918337" sodipodi:start="5.29206935104548" sodipodi:end="3.26394262375931" sodipodi:open="true" d="M0.184743 15.3637C-1.29132 25.8979 6.21293 35.8011 17.8536 38.6811C29.4942 41.561 41.788 36.5559 46.7994 26.8964C51.8108 17.2369 48.0403 5.81359 37.9216 0" fill="#ffffff" fill-rule="evenodd" stroke="#522c2b" stroke-width="6.99999999999944" stroke-linecap="square" stroke-linejoin="bevel"/>
  <path id="shape22" transform="translate(178.851605279975, 72.2923995874999)" sodipodi:type="arc" sodipodi:rx="12.2451905283833" sodipodi:ry="11.2403810567666" sodipodi:cx="12.2185574911878" sodipodi:cy="9.7890119771043" sodipodi:start="5.22619736886022" sodipodi:end="3.07562647613465" sodipodi:open="true" d="M0 10.53C0.386025 15.8938 4.85533 20.256 10.664 20.9385C16.4728 21.6209 21.9948 18.4325 23.84 13.3307C25.6852 8.22898 23.337 2.64208 18.237 0" fill="#522c2b" fill-rule="evenodd" stroke="#522c2b" stroke-width="9.9999999999992" stroke-linecap="square" stroke-linejoin="bevel"/>
  <path id="shape23" transform="translate(214.086823269558, 79.9750051040532)" fill="#522c2b" fill-rule="evenodd" stroke="#522c2b" stroke-width="4.9999999999996" stroke-linecap="square" stroke-linejoin="bevel" d="M3.62083 0L22.5526 24.2093L0 19.2715C0 19.2715 1.20694 12.8476 3.62083 0Z"/>
  <path id="shape24" transform="translate(139.938642435696, 12.3620154561652)" fill="#f8d491" fill-rule="evenodd" stroke="#522c2b" stroke-width="4.9999999999996" stroke-linecap="square" stroke-linejoin="bevel" d="M130.551 136.192C132.996 106.499 129.279 78.4567 113.554 53.6322C96.2153 23.8618 71.3508 8.8703 42.5264 1.65499C32.7199 -1.12742 26.9336 -0.717157 16.0672 5.32588C-20.87 29.0113 12.5746 80.9779 49.0693 64.3223L62.7655 52.5998C91.2554 49.5711 109.255 68.7323 117.789 91.296C117.789 91.296 122.043 106.261 130.551 136.192Z"/>
  <path id="shape25" transform="translate(169.174337148168, 47.2762371063316)" fill="none" stroke="#522c2b" stroke-width="4.9999999999996" stroke-linecap="square" stroke-linejoin="bevel" d="M0 12.7609C16.4252 -21.3996 49.7204 22.8114 4.44134 32.0683"/>
  <path id="shape26" transform="translate(90.0393352958498, 148.208673408718)" fill="#f8d491" fill-rule="evenodd" stroke="#522c2b" stroke-width="3.99999999999968" stroke-linecap="square" stroke-linejoin="bevel" d="M3.89158 22.251L0 0L26.7076 19.5021C26.7076 19.5021 19.1022 20.4184 3.89158 22.251Z"/>
  <path id="shape27" transform="translate(51.5419128299234, 127.206921099787)" fill="#f8d491" fill-rule="evenodd" stroke="#522c2b" stroke-width="3.99999999999968" stroke-linecap="square" stroke-linejoin="bevel" d="M0 0C1.0006 1.80244 8.81666 11.0099 23.4482 27.6224L26.3828 3.80115C26.3828 3.80115 17.5885 2.5341 0 0Z"/>
  <g id="group1" transform="translate(53.0136796980706, 86.1933063189568)" fill="none">
   <path id="shape28" transform="translate(0, 5.93749261649901)" fill="#522c2b" fill-rule="evenodd" stroke="#522c2b" stroke-width="6.99999999999944" stroke-linecap="square" stroke-linejoin="miter" stroke-miterlimit="2" d="M0 0L29.0217 2.05877"/>
   <ellipse id="shape29" transform="translate(30.2773548841691, 0)" rx="9.64444622363925" ry="9.01026154612168" cx="9.64444622363925" cy="9.01026154612168" fill="#522c2b" fill-rule="evenodd" stroke="#522c2b" stroke-width="6.99999999999944" stroke-linecap="square" stroke-linejoin="bevel"/>
  </g>
 </g>
</svg>
